<svg version="1" xmlns="http://www.w3.org/2000/svg" width="933.333" height="933.333" viewBox="0 0 700.000000 700.000000"><path d="M356.1 78.1c-5.6 2.5-8.3 7.1-7.8 13.2 1.1 13.2 17.8 16.8 24.7 5.4 3.9-6.3 1.5-14.8-5.1-18.3-4.5-2.3-7.2-2.4-11.8-.3zM305.3 81c-4.7 2.8-6.7 6.5-6.6 11.8.2 5.4 2.5 9 7.4 11.4 9.2 4.7 19.5-1.7 19.2-12-.1-5.2-2.5-9-7.4-11.4-4.4-2.3-8.6-2.3-12.6.2zM404.7 84.9c-7 3.5-9.7 12.4-5.7 18.8 2.7 4.5 6.2 6.5 11.4 6.5 8.4.2 14.1-6.2 13.2-14.6-1.1-9.7-10.4-15-18.9-10.7zM262.7 90.6c-.2.2-2 .6-4 .8-4.5.6-6.5 1.6-9.7 5.1-2.1 2.2-2.5 3.7-2.5 8.5 0 5.1.4 6.3 2.8 8.8 4.8 5 12.1 5.8 20.5 2.3 8.5-3.6 9.7-18.2 1.8-23.1-2.2-1.4-8.2-3-8.9-2.4zM454 100.1c-3.9.8-9.9 6.9-10.1 10.3-.4 7.5 1.9 11.8 7.8 14.7 5.4 2.6 10.6 1.8 14.9-2.5 9.7-9.7.9-25.4-12.6-22.5zM214.3 112.1c-1.8.5-4.3 2.4-5.7 4.2-3.5 4.6-4 9.3-1.5 14.5 4.8 9.9 18.2 10.2 23.5.6 6-11-4-22.7-16.3-19.3zM493.7 126c-6.5 3.5-9.1 13.2-5.1 18.7 4.9 6.5 10.9 8.3 17.4 5.1 13.3-6.6 7.7-26.1-7.3-25.5-1 0-3.3.8-5 1.7zM172.3 142c-6.7 4-8.8 11.1-5.4 17.8 6.3 12.4 25.1 7.8 25.1-6.2 0-10.2-11.2-16.8-19.7-11.6zM535 156.8c-4.1.6-8.8 4.9-10.1 9.2-3.1 10.3 6.1 19.8 16.4 16.9 10.1-2.8 12.9-16 4.9-23.2-2.3-2.1-7.5-3.4-11.2-2.9zM318.3 169c-6.5 3.9-8.6 10.3-5.5 17.2 5.7 13 25.9 8.4 25.4-5.9-.4-10.2-11.4-16.5-19.9-11.3zM367.4 168.6c-9.4 4.6-9.4 19.3.1 23.8 9.1 4.4 19.5-1.9 19.5-11.7 0-10.3-10.3-16.7-19.6-12.1zM138.5 177.2c-7.4 4.2-9.7 14.3-4.6 20.4 8 9.8 24.1 4.5 24.1-7.9 0-4.3-1.3-7.3-4.4-10.1-4.1-3.6-11-4.7-15.1-2.4zM271.3 182.9c-4.4 2.7-6.4 6.2-6.5 10.9-.1 7.7 4.5 12.9 12.2 13.8 10.2 1.1 17.3-8.9 13.4-18.6-2-4.7-5.7-7.2-11.3-7.7-3.4-.3-5.4.1-7.8 1.6zM414 182.3c-5.8 2.9-8.8 12.4-5.8 18 2.7 5.1 9.7 8.3 15.7 7.1 4-.8 8.8-6.3 9.7-10.9 2-10.6-9.8-19.1-19.6-14.2zM562.5 197c-5 2.4-7.5 6.5-7.5 11.9 0 5.3 1.4 8.2 5.3 10.8 4.4 3 8.7 3.4 13.4 1.3 12.2-5.4 9.6-23.4-3.8-25.5-2.3-.3-4.7.1-7.4 1.5zM471.5 203c-11.4 2.3-23.8 11.7-28.9 22.2-12.4 25.4 2.4 54.8 30.3 60 12.6 2.4 26.8-2.2 36.2-11.6 13.5-13.5 16.3-33 7.2-49.8-8.3-15.4-27.3-24.2-44.8-20.8zM231 208.9c-12.6 6.7-7.4 25.6 6.8 25.2 8.9-.2 15.5-10 12.3-18.3-3-7.8-11.6-10.9-19.1-6.9zM112.2 219c-5.1 2.3-7.6 6.3-7.6 12 .1 14.2 18.6 18.7 25.3 6.2 2-3.8 1.6-9.9-1-13.7-3.9-5.6-10.3-7.4-16.7-4.5zM585 240.8c-2.2 1.2-4.3 3.5-5.7 6.3-2 3.8-2.1 4.9-1.2 8.4 3.5 12.9 20.5 14.5 25.3 2.4 2.8-6.9-.3-14.7-7-17.5-4.5-1.9-7.2-1.8-11.4.4zM199.3 245.6c-9.3 4.6-9.8 18.1-1 23.4 11.2 6.9 24.8-5.1 19-16.7-3.5-7.3-11.1-10.1-18-6.7zM343 256.8c-11.2.8-24.4 4.4-35.4 9.8-23.2 11.4-41.6 34-48.6 59.9-3.4 12.3-3.5 31.8-.4 44.8 4.5 18.5 12.1 31.8 25.8 45.2 18.3 17.9 39.8 26.8 64.6 26.7 26.2 0 47.4-8.7 66.1-27.2 9.8-9.7 12.9-13.9 18.8-26.1 6.7-13.8 8.4-21.9 8.5-39.4.1-17.7-1.8-26.4-8.9-41-16.6-34.3-52.9-55.5-90.5-52.7zM95.6 264c-8.4 2.5-12.2 12.8-7.3 20.1 7.8 11.6 26.2 5.3 24.4-8.3-1.2-8.9-8.9-14.2-17.1-11.8zM600.1 288.1c-4.8 2.1-7 5.3-7.7 11-1.4 12.6 14.1 19.3 23 10 4-4.1 4.8-11.7 1.7-15.9-4.4-6.3-10.4-8.1-17-5.1zM179.2 290c-9.9 4.5-10.2 18.9-.4 23.9 9.2 4.6 19.8-2.1 19.5-12.4-.3-9.8-9.9-15.6-19.1-11.5zM509 288.8c-5.1 2.3-8.1 6.4-8.7 12-.7 6.2 4.7 12.8 11.2 13.8 11.5 1.7 19.5-10.5 13.5-20.4-3-4.9-11-7.6-16-5.4zM84 313.7c-9 4.7-9.6 17.3-1.1 23 4.1 2.7 8.4 2.9 13 .5 6.8-3.4 9.3-10.6 6.3-17.8-2.8-6.4-11.5-9.2-18.2-5.7zM174.8 337.3c-2.3.5-5 2.3-6.8 4.3-7.6 8.7-.5 22.7 11.1 21.9 4.7-.4 7.3-1.8 10-5.6 7.2-10.2-2.1-23.6-14.3-20.6zM514.9 337.8c-6.1 3.2-9.2 10.7-6.9 16.7 1.4 3.6 6.7 8.4 9.4 8.6 7.5.6 10.8-.8 14.9-6.3 3.8-5.1 1.4-15.1-4.4-18.6-3.3-2.1-9.4-2.2-13-.4zM604.5 337c-6.7 2.7-10 12-6.8 18.7 6 12.7 25.3 8.5 25.5-5.5.1-10-9.8-17-18.7-13.2zM85.4 362.5c-1.6.7-4 2.5-5.4 4-3.3 3.5-3.6 12.5-.5 16.7 4 5.4 13.2 6.9 18.5 3 7.9-5.8 7.4-18.4-1-22.7-4.1-2.1-8.2-2.5-11.6-1zM511.5 385c-4.6 1-7.5 3.2-9.5 7.1-5 9.5 3 21 13.4 19.4 6.8-1 10.9-5.3 11.9-12.5 1.2-7.8-7.8-15.7-15.8-14zM178.5 386.9c-4.2 2.5-6.6 6.5-6.7 11-.2 17 23.7 19 26.7 2.2.8-4.8-2.6-11.4-6.9-13.5-4.5-2.1-9.4-2-13.1.3zM596.8 388.9c-10.2 8.6-3.8 24.7 9.3 23.6 8.9-.8 14.3-8.5 12-17.2-1.5-5.5-5.7-8.5-12.5-9.1-4.5-.3-5.5 0-8.8 2.7zM95 410.8c-7 3.1-10.6 10.8-8.1 17.4 5.4 13.9 26.1 10.3 26.1-4.6 0-9-10.2-16.3-18-12.8zM200.2 430.5c-4 1.8-5.9 3.6-7.2 7-3.5 9.1 3 18.7 12.6 18.7 9.9 0 16.5-11.6 11.4-19.9-3.6-6-10.7-8.5-16.8-5.8zM488.4 430c-1.9.7-7.2 6.3-7.5 7.8-2.4 12.4 6.4 21 17.5 17.1 7.8-2.7 11-12.3 6.6-19.4-3.3-5.3-10.8-7.9-16.6-5.5zM585.3 434.6c-3.4 1.7-6.9 6.4-7.4 9.9-1.3 9.3 7.4 17.6 16 15.2 5-1.3 7.7-3.4 9.5-7.2 2.1-4.4 2-8.3-.4-12.3-4-6.5-11.2-8.8-17.7-5.6zM119.2 438.6c-9 1.9-16.7 6-23.8 12.9-28.1 27.4-14.2 74 24.6 82.1 30.7 6.4 59.3-18.8 57.5-50.6-1.8-29.1-29.6-50.4-58.3-44.4zM231.5 467.2c-7.1 4.1-9.6 12.8-5.6 19.4 6.9 11.3 25.1 6 25.1-7.4 0-9.1-11.9-16.4-19.5-12zM454.3 468.1c-7.3 4.7-8.2 15.2-1.7 20.8 4 3.6 7.1 4.6 11.7 3.7 6.2-1.2 10.7-6.8 10.7-13.3 0-10.4-11.9-16.9-20.7-11.2zM564 477.8c-11.7 5.2-11.8 20.8-.2 25.3 8.6 3.3 18.2-3.2 18.2-12.3 0-9.1-10.2-16.4-18-13zM272.4 493.9c-12.7 5.7-7.6 25.8 6.3 25.3 9.8-.4 15.9-10.1 11.9-19-3.3-7.2-10.6-9.7-18.2-6.3zM415.5 493.4c-10.2 4.5-11.1 18.5-1.6 24 8.8 5.1 20.1-1.5 20.1-11.8 0-5.3-3.2-10-8-12-4.8-1.9-6.5-1.9-10.5-.2zM318.5 507.8c-4.2 2.6-5.3 4.1-6.3 8.9-1.2 5.4 1.3 11.4 6 14.3 10 6.3 23.6-4.1 19.9-15.2-2.7-8.2-12.8-12.3-19.6-8zM369 506.8c-3.7 1.7-6.1 4.1-7.4 7.3-3.9 9.5 3.3 19.6 13.3 18.6 6.8-.7 12-5.8 12.3-11.9.2-5.3-.4-7-3.5-10.4-2.8-3.1-4.1-3.7-8.3-4-2.7-.2-5.6 0-6.4.4zM532.4 517.4c-4.6 2.1-7.6 6.8-7.6 12.2 0 8.3 6.1 13.8 14.5 13.1 16.1-1.4 16.1-24.5 0-26.3-2.1-.2-5.2.2-6.9 1zM173.5 534.3c-8.5 3.9-10.3 15.3-3.5 22.1 2.7 2.8 3.7 3.1 9 3.1 5.5 0 6.2-.3 9.6-3.6 3.2-3.2 3.6-4.3 3.7-8.7.1-7.8-3.9-12.6-11.8-13.7-2.4-.3-5.2 0-7 .8zM494.8 549.9c-4.3 2.2-6.9 6.1-7.5 10.9-1.6 13.7 16.6 19.8 24.5 8.2 4.3-6.3 1.6-16.2-5.1-19.1-4.2-1.8-8.4-1.8-11.9 0zM212.3 564c-9.4 5.7-8 20.1 2.4 24.1 3.5 1.3 10.2.3 12.9-2 2.8-2.3 5.4-7.4 5.4-10.6 0-10.5-11.7-17-20.7-11.5zM451.2 575c-4.3 2.7-6.5 6.4-6.6 11.4-.1 5.3 1.8 9.1 6 11.7 4.4 2.7 9.3 2.7 14.2-.1 8.3-4.7 8.6-17.2.5-22.5-3.9-2.6-10.3-2.8-14.1-.5zM259.3 584c-5 2.2-7.4 5.6-8 11.3-.9 9.3 8.8 16.7 17.8 13.5 7.5-2.6 11.2-12.8 7-19.5-4-6.4-10.1-8.3-16.8-5.3zM405.4 590.5c-6.5 2.7-9.6 10.6-6.8 17.4 4.5 11.3 21 10.9 24.9-.5 3.8-11.2-7.2-21.5-18.1-16.9zM308 594.8c-3.2 1.4-5.8 3.8-7.4 6.9-6 11.8 7.7 24.2 19 17.2 8.8-5.4 8.3-18.9-1-23.3-3.5-1.6-7.9-2-10.6-.8zM356.1 597.7c-5.2 2.7-7.6 6.6-7.5 12.3.1 8 5.2 13.1 13.4 13.2 13 .2 18.4-17.5 7.6-24.6-3.8-2.4-9.7-2.8-13.5-.9z"/></svg>