<?xml version="1.0" encoding="UTF-8" standalone="no"?><!-- Generator: Gravit.io -->
<svg xmlns="http://www.w3.org/2000/svg" xmlns:xlink="http://www.w3.org/1999/xlink" style="isolation:isolate"
	 viewBox="0 0 512 512" width="512pt" height="512pt">
	<defs>
		<clipPath id="_clipPath_VTrZKqB0965L3vnFyaKaFoYWgCjZy5b1">
			<rect width="512" height="512"/>
		</clipPath>
	</defs>
	<g clip-path="url(#_clipPath_VTrZKqB0965L3vnFyaKaFoYWgCjZy5b1)">
		<g>
			<path
				d=" M 255.575 304.448 C 282.332 304.448 304.115 282.684 304.115 255.952 C 304.115 229.22 282.332 207.456 255.575 207.456 C 228.819 207.456 207.035 229.22 207.035 255.952 C 207.135 282.784 228.819 304.448 255.575 304.448 Z "
				fill="rgb(0,170,209)"/>
			<path
				d=" M 350.963 189.271 C 356.931 189.271 361.706 184.501 361.706 178.538 C 361.706 172.575 356.931 167.805 350.963 167.805 C 344.995 167.805 340.221 172.575 340.221 178.538 C 340.221 184.501 344.995 189.271 350.963 189.271 Z  M 110.056 355.527 C 110.056 346.882 102.993 339.826 94.34 339.826 C 85.686 339.826 78.624 346.882 78.624 355.527 C 78.624 364.173 85.686 371.229 94.34 371.229 C 102.993 371.229 110.056 364.173 110.056 355.527 Z "
				fill="rgb(254,215,16)"/>
			<path
				d=" M 446.053 245.617 C 440.583 245.617 436.107 250.089 436.107 255.555 L 436.107 256.052 C 436.107 261.517 440.583 265.989 446.053 265.989 C 451.524 265.989 456 261.517 456 256.052 L 456 255.654 C 456 250.089 451.524 245.617 446.053 245.617 Z  M 444.462 229.319 C 448.062 228.766 451.07 226.289 452.301 222.865 C 453.533 219.441 452.791 215.617 450.368 212.901 C 447.945 210.185 444.228 209.011 440.682 209.841 C 435.485 211.059 432.179 216.161 433.195 221.397 C 434.211 226.632 439.186 230.131 444.462 229.319 L 444.462 229.319 Z  M 452.419 293.914 C 453.414 288.548 449.933 283.281 444.561 282.287 C 439.19 281.293 433.918 284.771 432.924 290.138 C 432.364 293.046 433.131 296.053 435.015 298.34 C 436.9 300.626 439.707 301.955 442.672 301.963 C 447.346 301.963 451.524 298.684 452.419 293.914 L 452.419 293.914 Z  M 298.246 431.252 C 292.875 432.544 289.593 437.91 290.886 443.277 C 291.501 445.844 293.122 448.057 295.384 449.42 C 297.646 450.784 300.361 451.184 302.921 450.531 C 308.292 449.239 311.575 443.873 310.282 438.507 C 308.989 433.14 303.617 429.96 298.246 431.252 Z  M 226.829 57.796 C 221.663 58.531 217.944 63.13 218.31 68.331 C 218.676 73.532 223.003 77.566 228.222 77.571 C 228.719 77.571 229.216 77.571 229.614 77.472 C 235.085 76.677 238.865 71.609 238.069 66.243 C 237.273 60.876 232.2 57.1 226.829 57.796 L 226.829 57.796 Z  M 63.207 199.804 C 62.357 202.805 62.957 206.031 64.83 208.526 C 66.703 211.021 69.634 212.5 72.756 212.525 C 77.033 212.525 81.011 209.742 82.304 205.37 C 83.796 200.103 80.812 194.637 75.541 193.047 C 70.269 191.457 64.699 194.538 63.207 199.804 L 63.207 199.804 Z  M 302.523 61.274 C 297.152 59.982 291.781 63.261 290.587 68.628 C 289.294 73.994 292.577 79.36 297.948 80.553 C 298.743 80.752 299.539 80.851 300.235 80.851 C 304.711 80.851 308.79 77.77 309.884 73.199 C 311.177 67.932 307.894 62.566 302.523 61.274 Z  M 56.045 237.17 C 55.526 242.63 59.533 247.478 64.997 248.002 L 65.892 248.002 C 70.965 248.002 75.342 244.126 75.839 238.959 C 76.358 233.499 72.352 228.651 66.887 228.127 C 61.422 227.721 56.621 231.725 56.045 237.17 Z  M 432.526 336.646 C 436.505 336.646 440.185 334.261 441.776 330.385 C 443.865 325.317 441.378 319.454 436.206 317.466 C 431.133 315.379 425.364 317.864 423.276 323.031 C 422.023 326.094 422.388 329.579 424.247 332.316 C 426.107 335.053 429.215 336.679 432.526 336.646 L 432.526 336.646 Z  M 410.245 144.452 C 405.67 147.433 404.277 153.594 407.261 158.166 C 409.151 161.048 412.334 162.737 415.617 162.737 C 419.245 162.718 422.576 160.73 424.313 157.548 C 426.051 154.366 425.92 150.491 423.972 147.433 C 420.988 142.762 414.821 141.471 410.245 144.452 L 410.245 144.452 Z  M 366.182 420.917 C 368.171 420.917 370.16 420.321 371.951 419.029 C 374.829 416.97 376.389 413.533 376.044 410.012 C 375.698 406.492 373.499 403.424 370.275 401.963 C 367.05 400.502 363.291 400.871 360.413 402.93 C 355.937 406.11 354.942 412.371 358.125 416.843 C 360.015 419.526 363.098 420.917 366.182 420.917 L 366.182 420.917 Z  M 365.784 110.763 C 368.867 110.763 371.951 109.273 373.94 106.589 C 377.123 102.117 376.029 95.857 371.553 92.677 C 367.077 89.497 360.811 90.59 357.727 95.062 C 355.565 98.084 355.272 102.059 356.968 105.365 C 358.664 108.67 362.066 110.753 365.784 110.763 L 365.784 110.763 Z  M 334.452 92.677 C 338.232 92.677 341.812 90.49 343.503 86.814 C 345.791 81.845 343.603 75.882 338.53 73.696 C 333.457 71.51 327.589 73.596 325.4 78.665 C 323.113 83.633 325.301 89.596 330.374 91.782 C 331.667 92.379 333.059 92.677 334.452 92.677 L 334.452 92.677 Z  M 386.373 117.223 C 382.395 120.999 382.295 127.26 386.075 131.235 C 388.064 133.222 390.651 134.315 393.237 134.315 C 395.723 134.315 398.21 133.421 400.1 131.533 C 404.055 127.746 404.189 121.472 400.398 117.521 C 396.608 113.569 390.329 113.436 386.373 117.223 L 386.373 117.223 Z  M 155.512 429.463 C 157.103 430.358 158.794 430.755 160.485 430.755 C 164.996 430.753 168.942 427.724 170.108 423.37 C 171.273 419.016 169.366 414.423 165.458 412.172 C 160.684 409.389 154.617 411.079 151.831 415.849 C 149.146 420.718 150.737 426.78 155.512 429.463 Z  M 230.012 434.532 C 224.541 433.737 219.568 437.513 218.772 442.979 C 217.977 448.444 221.756 453.413 227.227 454.208 C 227.724 454.307 228.222 454.307 228.62 454.307 C 233.838 454.302 238.165 450.268 238.531 445.067 C 238.897 439.866 235.178 435.267 230.012 434.532 L 230.012 434.532 Z  M 393.535 397.265 C 396.121 397.265 398.807 396.272 400.697 394.185 C 403.149 391.628 404.049 387.959 403.06 384.56 C 402.07 381.16 399.34 378.546 395.898 377.703 C 392.456 376.859 388.825 377.915 386.373 380.471 C 382.594 384.446 382.693 390.707 386.672 394.483 C 388.562 396.272 391.048 397.265 393.535 397.265 Z  M 123.484 393.39 C 121.752 395.378 120.883 397.973 121.07 400.602 C 121.257 403.231 122.483 405.678 124.478 407.402 C 126.368 408.992 128.656 409.787 130.944 409.787 C 133.729 409.787 136.514 408.594 138.503 406.309 C 140.235 404.32 141.103 401.725 140.917 399.096 C 140.73 396.467 139.504 394.021 137.508 392.297 C 133.331 388.818 127.064 389.315 123.484 393.39 Z  M 189.728 66.839 C 185.787 66.824 182.212 69.143 180.62 72.744 C 179.028 76.346 179.722 80.548 182.387 83.448 C 185.053 86.348 189.184 87.396 192.911 86.118 C 194.005 86.118 195.099 85.919 196.194 85.522 C 201.366 83.733 204.151 78.068 202.36 72.901 C 200.67 67.733 194.9 65.05 189.728 66.839 L 189.728 66.839 Z  M 264.825 56.007 C 259.355 55.808 254.68 59.982 254.481 65.448 C 254.346 68.074 255.269 70.645 257.045 72.587 C 258.82 74.529 261.3 75.68 263.93 75.783 L 264.428 75.783 C 269.699 75.783 274.076 71.609 274.374 66.342 C 274.573 60.876 270.296 56.206 264.825 56.007 Z  M 330.672 420.122 C 325.699 422.408 323.511 428.271 325.798 433.339 C 327.489 437.016 331.07 439.103 334.85 439.103 C 336.242 439.103 337.635 438.805 339.027 438.209 C 344.001 435.923 346.189 430.06 343.901 424.991 C 341.614 420.023 335.646 417.836 330.672 420.122 L 330.672 420.122 Z  M 428.647 175.656 C 426.206 176.644 424.259 178.56 423.233 180.983 C 422.207 183.406 422.186 186.137 423.176 188.575 C 425.226 193.662 430.998 196.147 436.107 194.14 C 441.18 192.053 443.666 186.289 441.577 181.221 C 439.489 176.054 433.72 173.668 428.647 175.656 Z  M 190.226 445.364 C 191.32 445.761 192.414 445.861 193.508 445.861 C 197.586 445.861 201.465 443.277 202.957 439.202 C 204.748 434.035 201.963 428.37 196.79 426.581 C 191.618 424.793 185.948 427.575 184.158 432.743 C 183.241 435.218 183.37 437.959 184.514 440.338 C 185.657 442.718 187.719 444.531 190.226 445.364 L 190.226 445.364 Z  M 421.286 350.459 C 416.711 347.478 410.544 348.77 407.56 353.44 C 404.576 358.012 405.869 364.173 410.544 367.154 C 412.235 368.248 414.025 368.744 415.915 368.744 C 419.197 368.744 422.38 367.154 424.27 364.173 C 427.254 359.602 425.862 353.44 421.286 350.459 L 421.286 350.459 Z  M 155.114 82.739 C 152.825 84.063 151.159 86.246 150.487 88.802 C 149.814 91.358 150.191 94.076 151.533 96.354 C 153.423 99.534 156.705 101.322 160.187 101.322 C 161.878 101.322 163.569 100.925 165.16 100.031 C 169.934 97.248 171.526 91.186 168.741 86.416 C 167.442 84.102 165.265 82.407 162.701 81.716 C 160.137 81.024 157.402 81.393 155.114 82.739 L 155.114 82.739 Z  M 124.18 104.9 C 122.185 106.624 120.958 109.071 120.772 111.7 C 120.585 114.329 121.453 116.924 123.185 118.912 C 125.174 121.198 127.96 122.291 130.645 122.291 C 132.933 122.291 135.32 121.496 137.21 119.806 C 141.388 116.229 141.785 109.869 138.205 105.794 C 134.624 101.72 128.258 101.223 124.18 104.9 Z  M 90.759 160.153 C 85.885 157.669 79.917 159.557 77.331 164.426 C 75.732 167.51 75.86 171.205 77.67 174.17 C 79.479 177.136 82.707 178.943 86.184 178.935 C 89.764 178.935 93.246 176.948 95.036 173.569 C 97.523 168.7 95.633 162.737 90.759 160.153 Z  M 111.846 130.738 C 109.78 129.103 107.146 128.362 104.53 128.68 C 101.915 128.997 99.535 130.346 97.921 132.427 C 96.285 134.491 95.543 137.123 95.861 139.736 C 96.178 142.349 97.529 144.727 99.612 146.34 C 101.402 147.731 103.59 148.427 105.779 148.427 C 108.763 148.427 111.647 147.135 113.636 144.651 C 116.919 140.377 116.222 134.117 111.846 130.738 L 111.846 130.738 Z  M 264.328 436.122 C 260.774 436.21 257.538 438.186 255.838 441.306 C 254.138 444.425 254.233 448.213 256.087 451.243 C 257.941 454.274 261.272 456.086 264.825 455.997 L 265.323 455.997 C 270.793 455.699 275.07 451.127 274.772 445.562 C 274.474 440.097 269.799 435.923 264.328 436.122 Z  M 72.855 319.752 C 75.977 319.727 78.908 318.248 80.781 315.753 C 82.654 313.258 83.254 310.033 82.404 307.032 C 80.812 301.765 75.342 298.783 70.07 300.274 C 64.798 301.864 61.814 307.33 63.306 312.597 C 64.599 316.969 68.578 319.752 72.855 319.752 L 72.855 319.752 Z  M 65.097 264.399 C 59.632 264.923 55.626 269.771 56.145 275.231 C 56.642 280.399 60.919 284.274 65.992 284.274 L 66.987 284.274 C 72.451 283.751 76.458 278.903 75.939 273.442 C 75.712 270.803 74.439 268.363 72.403 266.665 C 70.367 264.966 67.737 264.151 65.097 264.399 L 65.097 264.399 Z  M 380.903 265.989 C 386.373 265.989 390.849 261.517 390.849 256.052 L 390.849 255.853 C 390.849 250.387 386.373 245.915 380.903 245.915 C 375.432 245.915 370.956 250.387 370.956 255.853 L 370.956 256.052 C 370.956 261.517 375.432 265.989 380.903 265.989 Z  M 130.347 266.089 C 135.817 266.089 140.293 261.617 140.293 256.151 C 140.293 250.685 135.817 246.213 130.347 246.213 C 124.876 246.213 120.4 250.685 120.4 256.151 C 120.4 261.617 124.876 266.089 130.347 266.089 Z  M 369.464 329.093 C 372.448 324.522 371.056 318.361 366.48 315.379 C 364.271 313.933 361.572 313.434 358.991 313.995 C 356.41 314.555 354.163 316.128 352.754 318.361 C 350.806 321.419 350.675 325.293 352.412 328.475 C 354.15 331.658 357.481 333.645 361.109 333.665 C 364.292 333.565 367.475 331.975 369.464 329.093 L 369.464 329.093 Z  M 199.277 133.123 C 194.304 135.409 192.115 141.272 194.403 146.34 C 196.094 150.017 199.675 152.104 203.455 152.104 C 204.847 152.104 206.24 151.806 207.632 151.209 C 212.606 148.924 214.794 143.061 212.506 137.992 C 210.119 133.024 204.25 130.837 199.277 133.123 L 199.277 133.123 Z  M 166.95 153.992 C 164.955 155.716 163.729 158.163 163.542 160.792 C 163.356 163.421 164.224 166.016 165.956 168.004 C 167.945 170.29 170.73 171.383 173.416 171.383 C 175.703 171.383 178.091 170.588 179.981 168.998 C 182.792 166.709 184.134 163.072 183.482 159.508 C 182.83 155.944 180.288 153.016 176.848 151.868 C 173.408 150.72 169.615 151.534 166.95 153.992 L 166.95 153.992 Z  M 385.379 294.113 C 386.134 291.582 385.844 288.855 384.573 286.54 C 383.302 284.225 381.157 282.514 378.615 281.79 C 376.082 281.035 373.353 281.325 371.035 282.595 C 368.718 283.865 367.006 286.008 366.281 288.548 C 365.413 291.55 366.007 294.785 367.883 297.285 C 369.76 299.785 372.702 301.26 375.83 301.268 C 380.207 301.168 384.185 298.386 385.379 294.113 L 385.379 294.113 Z  M 138.105 211.332 C 132.833 209.841 127.363 212.823 125.771 218.09 C 124.903 221.092 125.497 224.327 127.373 226.827 C 129.25 229.327 132.192 230.802 135.32 230.81 C 139.597 230.81 143.576 228.027 144.869 223.655 C 146.361 218.388 143.377 212.823 138.105 211.332 L 138.105 211.332 Z  M 345.194 344.099 C 341.614 339.925 335.347 339.528 331.17 343.105 C 326.992 346.683 326.594 352.944 330.175 357.117 C 332.164 359.403 334.949 360.496 337.734 360.496 C 340.022 360.496 342.409 359.701 344.299 358.012 C 348.377 354.534 348.775 348.273 345.194 344.099 Z  M 283.326 378.483 C 282.53 373.018 277.557 369.241 272.086 370.036 C 266.616 370.831 262.836 375.8 263.632 381.266 C 264.328 386.235 268.605 389.812 273.479 389.812 C 273.976 389.812 274.474 389.812 274.872 389.713 C 277.495 389.369 279.869 387.985 281.46 385.872 C 283.05 383.76 283.723 381.097 283.326 378.483 L 283.326 378.483 Z  M 181.174 357.217 C 184.755 353.043 184.357 346.782 180.179 343.205 C 176.002 339.627 169.735 340.025 166.155 344.198 C 162.574 348.372 162.972 354.633 167.149 358.21 C 169.039 359.801 171.327 360.596 173.615 360.596 C 176.4 360.596 179.185 359.502 181.174 357.217 Z  M 316.747 365.763 C 314.459 360.794 308.591 358.608 303.518 360.894 C 298.445 363.179 296.356 369.043 298.644 374.111 C 300.335 377.788 303.916 379.875 307.695 379.875 C 309.088 379.875 310.481 379.576 311.873 378.98 C 316.846 376.595 319.035 370.732 316.747 365.763 L 316.747 365.763 Z  M 132.634 281.889 C 127.363 283.479 124.379 288.945 125.871 294.212 C 127.418 299.474 132.932 302.495 138.205 300.97 C 143.476 299.38 146.46 293.914 144.968 288.647 C 144.253 286.101 142.543 283.951 140.222 282.679 C 137.902 281.408 135.167 281.123 132.634 281.889 Z  M 141.785 183.109 C 139.837 186.167 139.706 190.042 141.444 193.224 C 143.181 196.406 146.512 198.394 150.141 198.413 C 154.546 198.402 158.419 195.497 159.659 191.274 C 160.899 187.051 159.212 182.516 155.512 180.128 C 150.837 177.147 144.67 178.439 141.785 183.109 Z  M 372.945 210.935 C 367.674 212.525 364.69 217.99 366.182 223.257 C 367.475 227.531 371.453 230.412 375.731 230.412 C 378.852 230.388 381.783 228.909 383.656 226.414 C 385.529 223.919 386.13 220.693 385.279 217.692 C 383.787 212.425 378.217 209.444 372.945 210.935 L 372.945 210.935 Z  M 227.724 133.52 C 228.421 138.489 232.698 142.067 237.572 142.067 C 238.069 142.067 238.566 142.067 238.964 141.967 C 242.948 141.405 246.2 138.501 247.205 134.608 C 248.209 130.716 246.767 126.602 243.552 124.186 C 240.337 121.769 235.981 121.526 232.517 123.57 C 229.052 125.613 227.16 129.54 227.724 133.52 Z  M 247.717 381.365 C 248.513 375.899 244.733 370.931 239.263 370.136 C 233.792 369.341 228.819 373.117 228.023 378.583 C 227.227 384.048 231.007 389.017 236.477 389.812 C 236.975 389.912 237.472 389.912 237.87 389.912 C 242.825 389.911 247.023 386.267 247.717 381.365 Z  M 263.433 130.638 C 262.637 136.104 266.417 141.073 271.888 141.868 C 272.385 141.967 272.783 141.967 273.28 141.967 C 278.593 141.968 282.968 137.798 283.217 132.496 C 283.466 127.194 279.501 122.632 274.212 122.136 C 268.923 121.639 264.177 125.383 263.433 130.638 L 263.433 130.638 Z  M 298.445 137.893 C 297.029 140.975 297.28 144.565 299.112 147.42 C 300.943 150.275 304.103 152.002 307.497 152.004 C 311.276 152.004 314.857 149.818 316.548 146.141 C 318.836 141.172 316.647 135.21 311.575 133.024 C 306.601 130.738 300.733 132.924 298.445 137.893 L 298.445 137.893 Z  M 150.24 333.764 C 153.868 333.745 157.199 331.757 158.937 328.575 C 160.674 325.392 160.543 321.518 158.595 318.46 C 155.611 313.889 149.444 312.497 144.869 315.479 C 140.293 318.46 138.901 324.621 141.885 329.193 C 143.775 332.075 146.958 333.764 150.24 333.764 L 150.24 333.764 Z  M 212.705 374.111 C 214.993 369.142 212.804 363.179 207.831 360.894 C 202.858 358.608 196.89 360.794 194.602 365.763 C 192.314 370.732 194.503 376.695 199.476 378.98 C 204.477 381.217 210.351 379.055 212.705 374.111 Z  M 187.242 256.052 C 187.242 293.715 217.977 324.423 255.675 324.423 C 293.372 324.423 324.107 293.715 324.107 256.052 C 324.107 218.388 293.372 187.681 255.675 187.681 C 217.977 187.681 187.242 218.289 187.242 256.052 L 187.242 256.052 Z  M 255.575 207.556 C 282.332 207.556 304.115 229.319 304.115 256.052 C 304.115 282.784 282.332 304.547 255.575 304.547 C 228.819 304.547 207.035 282.784 207.035 256.052 C 207.135 229.319 228.819 207.556 255.575 207.556 Z  M 350.963 209.146 C 367.873 209.146 381.599 195.432 381.599 178.538 C 381.599 161.644 367.873 147.93 350.963 147.93 C 334.054 147.93 320.328 161.644 320.328 178.538 C 320.328 195.432 334.054 209.146 350.963 209.146 Z  M 350.963 167.805 C 356.931 167.805 361.706 172.575 361.706 178.538 C 361.706 184.501 356.931 189.271 350.963 189.271 C 344.995 189.271 340.221 184.501 340.221 178.538 C 340.221 172.575 344.995 167.805 350.963 167.805 Z  M 94.439 319.951 C 74.796 320.005 58.885 335.901 58.83 355.527 C 58.83 375.104 74.844 391.104 94.439 391.104 C 114.034 391.104 130.048 375.104 130.048 355.527 C 129.949 335.95 114.034 319.951 94.439 319.951 L 94.439 319.951 Z  M 78.724 355.527 C 78.724 346.882 85.786 339.826 94.439 339.826 C 103.093 339.826 110.155 346.882 110.155 355.527 C 110.155 364.173 103.093 371.229 94.439 371.229 C 85.786 371.229 78.724 364.173 78.724 355.527 Z "
				fill="rgb(45,48,51)"/>
		</g>
	</g>
</svg>
